<svg width="300" height="300" version="1.1" viewBox="0 0 79.375 79.375" xmlns="http://www.w3.org/2000/svg">
 <g transform="translate(0 -217.62)" fill="none" stroke="#000" stroke-linecap="round" stroke-linejoin="round" stroke-width="1.6">
  <path d="m15.502 234.99-1.3363 18.041s0 9.7553 1.7373 11.76 9.4881 1.7372 10.958 1.7372c1.47 0 26.861-0.26727 26.861-0.26727s6.1472-1.0691 6.949-1.8709c0.80181-0.80181 3.0736-5.7463 3.4745-7.3499 0.4009-1.6036-0.4009-18.308-0.93544-19.377-0.53454-1.0691-6.5481-5.2118-14.967-4.9445-8.419 0.26727-18.976 1.47-20.981 1.47-2.0045 0-11.76 0.80181-11.76 0.80181z"/>
  <path d="m19.043 237.47s-0.33409 20.914 0.06682 21.849c0.4009 0.93544-0.06682 4.2095 7.5504 4.2095 7.6172 0 17.105-0.53454 17.907-0.93544 0.80181-0.40091 8.8199-1.1359 10.023-1.1359 1.2027 0 5.6795-2.5391 6.0136-4.8777 0.33409-2.3386 0.46772-12.294-0.26727-13.43s-1.47-4.009-7.4835-4.744c-6.0136-0.735-17.907-0.53454-18.909-0.53454h-10.758l-4.3431 0.93544"/>
  <path d="m37.485 266.93 0.13364 5.4122"/>
  <path d="m26.927 274.28s4.6772-0.13363 6.6817-0.80181c2.0045-0.66817 8.6863-1.7372 10.891-1.5368s4.8777 0.0668 4.6772 1.5368c-0.20045 1.47-0.4009 1.9377-2.8731 2.5391-2.4722 0.60136-10.223 1.9377-11.092 2.1382-0.86863 0.20045-5.6795 0.20045-6.214-0.13364-0.53454-0.33408-3.4745-2.205-2.205-2.7395"/>
  <path d="m36.9 257.83s-2.3624-0.56697-2.8348-1.2757c-0.47247-0.70871-1.5119-2.1261-1.4647-2.5513 0.04725-0.42522 0.47247-1.7481 1.9844-1.4174 1.5119 0.33073 3.3073 0.61421 3.3073 0.61421s-0.51972-4.6775-0.47247-5.2444c0.04725-0.56697 1.3229-3.5908 2.3624-3.638 1.0394-0.0472 2.3624 0.51971 2.5041 1.4174 0.14174 0.89769 0.14174 3.3545 0.14174 3.3545s2.8348-3.449 3.5435-3.449 3.1183 0.23623 2.6931 2.0789c-0.42522 1.8426-1.3229 3.3073-1.3229 3.3073s1.4647-0.23624 2.7403 0.42522c1.2757 0.66146 2.7403 1.2757 2.4096 2.3151-0.33073 1.0394-2.2206 1.9371-3.0238 2.2206-0.8032 0.28349-0.75595 0.14174-0.75595 0.14174s2.1734 1.8426 1.0867 2.7403c-1.0867 0.89769-1.8426 1.1812-3.0711 1.1339-1.2284-0.0473-2.5041-0.61421-3.1655-1.0394-0.66146-0.42523-1.0867-0.70871-1.0867-0.70871"/>
  <path d="m38.086 257.68-0.60136 4.6438"/>
  <path d="m42.195 257.04c-0.23386 0.23387-1.5702 5.4122-1.5702 5.4122"/>
 </g>
</svg>
