<svg width="300" height="300" version="1.1" viewBox="0 0 79.375 79.375" xmlns="http://www.w3.org/2000/svg">
 <g fill="none" stroke="#000" stroke-linecap="round" stroke-linejoin="round" stroke-width="1.6">
  <path d="m35.152 56.082c-0.99219-0.23624-3.1656-0.75596-3.1656-2.4568s0.14174-3.3073 2.1734-4.4885c2.0316-1.1812 4.2522-0.94494 4.6302-0.56696s1.3229 1.5119 0.85045 3.26c-0.47247 1.7481-1.7009 3.4963-2.7403 3.9215-1.0394 0.42522-1.7481 0.33073-1.7481 0.33073z"/>
  <path d="m46.893 47.861s-4.0869 0.28348-5.0082 1.7245c-0.92132 1.441-0.96856 2.4568-0.75595 4.1577 0.21261 1.7009 1.6773 3.5671 1.9135 3.5671s4.1105-2.575 4.8192-4.5121 0.92132-2.5277-0.18899-3.4727-1.7718-0.56696-1.7718-0.56696"/>
  <path d="m41.081 54.145s-1.5119-0.73233-2.5277 0.85044c-1.0158 1.5828-1.5355 1.7009-1.3465 3.4254s0.23624 2.5986 1.8426 3.5671c1.6064 0.96857 2.3624 1.3229 2.3624 1.3229s2.6458-0.54334 3.4727-2.5513c0.82682-2.008 0.68508-3.4018 0.25986-3.9451-0.42522-0.54334-4.0632-2.6695-4.0632-2.6695z"/>
  <path d="m11.025 49.508s37.551-2.205 41.16-2.2718c3.6081-0.06682 8.2185 0.33409 8.8199 0.33409 0.60136 0 6.2808 0.73499 6.2808 0.73499"/>
  <path d="m22.718 47.904s-0.86862-8.0849-0.86862-8.9535c0-0.86863-1.8709-5.3454-1.9377-8.0181-0.06682-2.6727 0-3.0736 0-3.0736s1.9377-2.3386 10.29-4.2763c8.3522-1.9377 11.626-1.9377 13.764-1.8709 2.1382 0.06682 7.7508 0.4009 8.0181 0.4009 0.26727 0 2.205 0.66817 3.1404 0.93544 0.93544 0.26727 1.9377-1.2027 3.2741 4.4099s2.4722 16.838 2.4054 19.243"/>
  <path d="m23.186 41.49s15.368-3.1404 19.043-3.7418c3.675-0.60136 4.6772-0.73499 7.1495-0.86862 2.4722-0.13364 9.9558-1.0023 9.9558-1.0023"/>
  <path d="m22.918 45.231s4.744-1.1359 7.4835-1.4032c2.7395-0.26727 7.3499-1.0691 10.49-1.9377 3.1404-0.86863 6.1472-1.1359 8.1517-1.2027 2.0045-0.06682 3.675-0.13364 4.6104-0.20045 0.93544-0.06681 6.3477-1.0691 6.3477-1.0691"/>
  <path d="m60.336 38.683s-2.0045 1.5034-4.1093-0.4009c-2.1047-1.9043-2.5057-3.4411-2.4722-4.4434 0.03341-1.0023 1.1359-2.3052 3.3409-0.53454 2.205 1.7707 3.3075 3.4077 3.4745 4.3097"/>
  <path d="m60.937 38.349s4.6772-0.26727 6.0804-0.83522c1.4032-0.56795 2.7729-2.8397-0.26727-2.9066-3.0402-0.06682-2.7395-0.10023-3.9088 0.20045-1.1693 0.30068-2.0713 0.46772-2.4388 0.80181-0.3675 0.33409-1.2027 1.5034-1.2027 1.5034"/>
  <path d="m60.336 38.683-2.6393 4.5436"/>
  <path d="m60.937 38.349 4.0759 4.1427"/>
 </g>
</svg>
