<svg width="300" height="300" version="1.1" viewBox="0 0 79.375 79.375" xmlns="http://www.w3.org/2000/svg">
 <g fill="none" stroke="#000" stroke-linecap="round" stroke-linejoin="round" stroke-width="1.6">
  <path d="m37.136 15.025 0.0945 5.4807s-7.9375 3.7798-8.8824 5.4807c-0.94494 1.7009-1.4174 2.7403-1.4174 2.7403l22.679 0.66146-2.5513-3.4018s-0.47247-1.7009-3.3073-3.1183c-2.8348-1.4174-6.1421-2.4568-6.1421-2.4568"/>
  <path d="m25.725 37.681s0.30068-4.4099 1.3363-6.0804c1.0357-1.6704 2.3386-3.4745 3.1738-0.63476 0.83522 2.8397 0.86862 2.9734 0.83522 3.9422-0.03341 0.96885 0.06682 2.205-0.60136 2.5725-0.66817 0.3675-2.2384 0.60136-3.0736 0.50113-0.83522-0.10022-1.5034-0.3675-1.5034-0.3675"/>
  <path d="m32.941 38.015s0.30068-4.2429 0.60136-5.1115c0.30068-0.86863 1.3698-5.5793 3.0736-2.372 1.7038 3.2072 1.5368 3.3409 1.5034 4.2429-0.03341 0.90204 0.16704 2.0379-0.63477 2.4388-0.80181 0.4009-2.5725 0.7684-3.3075 0.66817-0.73499-0.10023-0.93544-0.13364-0.93544-0.13364"/>
  <path d="m40.692 37.815s-0.96885-3.5747-0.13364-5.1783c0.83522-1.6036 1.1693-2.3386 2.1382-1.9377 0.96885 0.4009 1.8375 1.47 1.8709 2.2384 0.03341 0.7684-0.06682 1.8375-0.33409 2.1716-0.26727 0.33409-1.6036 2.2384-2.4388 2.372-0.83522 0.13363-1.0357 0.20045-1.0357 0.20045"/>
  <path d="m47.908 37.781s-1.6704-3.6415-1.6704-4.3431c0-0.70158 0.3675-2.4388 1.0357-3.0068 0.66817-0.56795 1.3029-0.63476 1.7373-0.4009 0.43431 0.23386 1.6704 2.7395 1.7038 3.4745 0.03341 0.73499-0.10023 2.1716-0.46772 2.5725-0.3675 0.4009-2.1716 1.637-2.1716 1.637"/>
  <path d="m23.653 40.02s-3.2072 1.8709-3.5413 5.0113c-0.33409 3.1404 0.4009 5.0781 3.1404 6.6149 2.7395 1.5368 5.4122 2.6727 11.626 2.6059 6.214-0.06682 12.762-1.3363 15.769-2.7395 3.0068-1.4032 4.2763-2.205 4.2763-3.3409s-0.80181-5.3454-1.5368-6.6149c-0.73499-1.2695-1.5368-2.4722-2.4054-2.8063-0.86863-0.33409-7.8845-1.8041-8.419-1.8041-0.53454 0-2.0713-0.20045-6.8822 0.20045-4.8108 0.4009-7.5504 1.3363-8.5526 1.6704-1.0023 0.33409-3.4745 1.2027-3.4745 1.2027z"/>
  <path d="m56.093 47.403s-3.2741 2.4054-4.2095 3.9756c-0.93544 1.5702-1.5368 3.107-1.4032 4.0425 0.13364 0.93544 0.4009 2.0713 2.5725 2.8063 2.1716 0.73499 5.1449 0.96885 6.0136 0.73499 0.86863-0.23386 2.5391-0.83522 3.4077-1.8375 0.86862-1.0023 1.5702-2.94 1.7707-3.7752 0.20045-0.83522 0.53454-2.8063-0.63476-4.2095-1.1693-1.4032-2.0379-3.1404-4.3765-3.107-2.3386 0.03341-3.3075 0.43431-3.4411 0.56795"/>
  <path d="m50.848 57.492s-0.66817 1.3363-0.70158 1.7707c-0.03341 0.43431-0.06682 1.9377-0.06682 1.9377s1.0023 0.30068 2.5391-0.80181c1.5368-1.1025 1.7373-1.3363 1.7373-1.3363"/>
  <path d="m59.701 59.33s1.5368 3.0402 1.9711 2.8397c0.43431-0.20045 0.83522-0.90204 1.0023-1.4366 0.16704-0.53454 0.93544-4.3097 0.93544-4.3097"/>
 </g>
</svg>
