<svg width="300" height="300" version="1.1" viewBox="0 0 79.375 79.375" xmlns="http://www.w3.org/2000/svg">
 <g fill="none" stroke="#000" stroke-linecap="round" stroke-linejoin="round" stroke-width="1.6">
  <path d="m56.98 50.365s-11.945 2.7504-19.094 2.8173c-7.1495 0.06682-7.4835 0.13364-11.626-1.2695-4.1427-1.4032-7.2831-1.9377-6.949-5.0781s-0.13364-4.5436 2.7395-5.8131c2.8731-1.2695 13.23-2.205 13.631-2.3386 0.4009-0.13363 5.6127-1.47 9.7553-1.3363 4.1427 0.13364 12.094 1.4032 13.698 2.1382 1.6036 0.73499 3.2072 1.6704 3.4745 4.1427 0.26727 2.4722-0.93544 4.6772-1.6704 5.3454-0.73499 0.66817-7.1495 3.4745-7.1495 3.4745"/>
  <path d="m18.575 45.833s-0.20045 2.1382-0.20045 3.0068c0 0.86863 1.0691 5.2786 1.0691 6.3477s0.13364 2.0045 0.13364 2.0045l0.06682 0.33409"/>
  <path d="m63.41 46.1-0.4009 10.089"/>
  <path d="m62.073 55.956s-4.0759 1.637-5.6461 1.9377c-1.5702 0.30068-6.9156 1.2027-10.824 1.7373-3.9088 0.53454-8.2519 1.4366-11.092 1.2027-2.8397-0.23386-6.6817-1.3698-8.1517-1.6036-1.47-0.23386-5.9133-1.637-5.9133-1.637"/>
  <path d="m19.11 44.229s-0.13364-2.8731-0.13364-3.7418c0-0.86862 1.2027-7.0826 1.2027-9.0872 0-2.0045 0.06682-7.0826 0.06682-8.2854s0.13364-2.6059 0.60136-3.0068"/>
  <path d="m49.645 51.312s-0.93544-16.771-1.0691-18.842c-0.13364-2.0713-1.4032-7.6172-1.0023-11.159 0.4009-3.5413 0.66817-3.8086 0.66817-3.8086"/>
  <path d="m31.671 40.621 0.06681-8.7531"/>
  <path d="m57.329 40.086 1.2027-8.419"/>
 </g>
</svg>
