<svg width="300" height="300" version="1.1" viewBox="0 0 79.375 79.375" xmlns="http://www.w3.org/2000/svg">
 <g fill="none" stroke="#000" stroke-linecap="round" stroke-linejoin="round" stroke-width="1.6">
  <path d="m62.744 33.734s-1.5119-2.7403-2.6458-3.2128c-1.1339-0.47247-7.465-5.1027-15.119-5.4807s-17.576-0.18899-19.749 1.9844c-2.1734 2.1734-4.1577 5.8586-3.8743 7.465 0.28348 1.6064 1.0394 5.3862 7.9375 4.0632 6.8981-1.3229 11.717-2.0789 14.269-1.9844 2.5513 0.09449 11.528 2.6458 12.757 2.9293 1.2284 0.28348 4.9137 1.6064 5.8586 0.66146 0.94494-0.94494 2.1734-1.9844 1.9844-3.5908-0.18899-1.6064-1.5119-4.1577-1.5119-4.1577"/>
  <path d="m30.711 38.648s-0.94494 8.5045-0.75595 9.2604c0.18899 0.75595-0.47247 3.6853 3.3073 3.9688 3.7798 0.28348 12.473 0.66146 12.473 0.66146s4.2522 0.94494 5.8586-0.18899c1.6064-1.1339 3.5908-2.8348 3.9688-6.1421 0.37798-3.3073 0.75595-8.3155 0.75595-8.3155"/>
  <path d="m24.852 38.648s-5.0082 1.9844-6.8036 3.5908c-1.7954 1.6064-5.0082 4.4412-4.5357 5.4807 0.47247 1.0394 7.465 7.7485 8.41 8.032 0.94494 0.28348 6.2366 3.3073 7.3705 2.8348 1.1339-0.47247 0.66146-2.0789 0.66146-3.2128 0-1.1339 0.09449-4.4412 0.09449-4.4412"/>
  <path d="m57.263 42.333s0.66146-0.94494 1.8899-0.09449c1.2284 0.85044 1.8899 2.2679 4.2522 1.6064 2.3624-0.66146 2.7403-0.94494 2.7403-0.94494"/>
  <path d="m56.224 46.397s2.1734-2.8348 4.9137-1.0394c2.7403 1.7954 3.1183 2.3624 4.3467 2.3624h1.3229"/>
  <path d="m56.437 48.216s1.1812-0.87407 3.4963 0.37798c2.3151 1.252 4.2286 2.386 5.1027 1.9844 0.87407-0.4016 0.85045-0.42522 0.85045-0.42522"/>
 </g>
</svg>
