<svg width="300" height="300" version="1.1" viewBox="0 0 79.375 79.375" xmlns="http://www.w3.org/2000/svg">
 <g fill="none" stroke="#000" stroke-linecap="round" stroke-linejoin="round" stroke-width="1.6">
  <path d="m35.435 55.515s-6.0004-1.6536-8.0792-6.6146c-2.0789-4.9609-2.3151-5.4807-1.9844-7.1815 0.33073-1.7009 3.0238-6.0004 3.3545-6.8508 0.33073-0.85044-0.09449-3.1655 2.1261-3.8743 2.2206-0.7087 5.9059-0.33073 8.8352 0.61421 2.9293 0.94494 5.7641 1.4647 6.6146 2.5513 0.85045 1.0867 2.3624 2.8821 2.8348 5.9059 0.47247 3.0238 0.61421 4.1577 0.37798 5.2444-0.23624 1.0867-1.1339 5.1499-4.5357 7.2288s-5.6696 2.5986-6.7091 2.7403c-1.0394 0.14174-2.8348 0.23624-2.8348 0.23624z"/>
  <path d="m17.34 21.828s-0.33073 6.3311 0 7.3705c0.33073 1.0394 1.1812 2.0789 2.8348 2.3151 1.6536 0.23624 9.1187-0.33073 10.583-0.51972 1.4647-0.18899 11.198-1.0394 12.898-1.0394 1.7009 0 11.434-0.04725 11.717-0.04725 0.28348 0 1.8426 0.0945 2.6931-1.3229 0.85044-1.4174 0.89769-3.1656 1.0394-4.7719 0.14174-1.6064-0.04725-3.3545-0.18899-3.9215-0.14174-0.56696-2.5986-1.1812-5.4334-1.1339-2.8348 0.04725-5.3389 0.18899-7.1343 0.47247-1.7954 0.28348-6.8508 0.99219-8.1737 0.94494-1.3229-0.04725-12.426 0.23624-12.426 0.23624l-8.599 1.1339"/>
  <path d="m35.435 55.515-1.8426 2.9293 3.9215 0.51972z"/>
  <path d="m35.128 59.236s-0.50791 0.81501-0.42523 1.3111c0.08268 0.49609 0.96857 2.1379 1.0394 2.3033 0.07087 0.16536 0.56696 1.0749 0 1.819-0.56696 0.74414-0.92132 0.96857-0.92132 0.96857"/>
  <path d="m59.437 24.049s2.9766 0.7087 4.394-0.37798c1.4174-1.0867 2.5513-1.6064 3.4963-3.6853 0.94494-2.0789 0.99219-2.2206 0.99219-2.2206"/>
  <path d="m18.442 25.387s4.4768-1.8041 5.479-1.8041c1.0023 0 13.029-2.3386 14.433-2.3386 1.4032 0 9.889-1.3363 11.626-1.2695 1.7373 0.06682 4.8108 0.53454 5.5458 0.53454"/>
  <path d="m19.377 26.79s12.361-1.7373 15.234-2.0713c2.8731-0.33409 6.5481-1.4032 8.8867-1.5368 2.3386-0.13363 11.493-0.73499 11.493-0.73499"/>
  <path d="m19.043 28.193s6.4813-0.46772 8.6863-0.66817c2.205-0.20045 5.4122 0.13363 7.9513-0.13364 2.5391-0.26727 7.1495-0.80181 8.2854-0.86863 1.1359-0.06682 4.0759-0.13363 5.5458-0.4009 1.47-0.26727 7.3499-0.66817 7.3499-0.66817"/>
  <path d="m20.246 22.046 0.73499 8.8199"/>
  <path d="m23.119 21.578 0.80181 8.6194"/>
  <path d="m25.992 22.046 0.73499 6.6817"/>
  <path d="m30.135 21.444 1.8041 5.4122 0.73499-0.73499"/>
  <path d="m34.879 22.179c0.06682 0.26727 1.0023 6.6817 1.0023 6.6817"/>
  <path d="m38.487 21.511 0.26727 6.1472"/>
  <path d="m41.961 21.378 0.26727 6.2808"/>
  <path d="m44.768 20.843-0.06682 6.214"/>
  <path d="m47.374 20.709-0.13364 7.7508 0.80181-0.80181"/>
  <path d="m50.781 20.308v8.419l0.06682-0.33409"/>
  <path d="m54.122 20.442-0.33409 7.2831 0.20045-0.4009"/>
 </g>
</svg>
