<svg width="300" height="300" version="1.1" viewBox="0 0 79.375 79.375" xmlns="http://www.w3.org/2000/svg">
 <g transform="translate(0 -217.62)" fill="none" stroke="#000" stroke-linecap="round" stroke-linejoin="round">
  <g stroke-width="1.6">
   <path d="m22.868 260.9-0.56696-6.6146 6.8036 0.18899v6.4256z"/>
   <path d="m35.719 259.96-0.75595-4.9137 7.5595-1.3229 0.56696 6.8036z"/>
   <path d="m29.4 258.08 5.6795-0.20046"/>
   <path d="m43.565 258.18 19.845-10.691"/>
   <path d="m49.311 250.96c-0.02138-0.0492 2.8747-2.2948 5.0113 1.2027 1.1679 1.9118 1.9856 4.0451-1.4032 5.2786"/>
  </g>
  <path transform="translate(0 217.62)" d="m62.508 30.465s1.2361 9.2208 1.47 10.591c0.23386 1.3698-0.20045 9.1206-5.8131 12.729-5.6127 3.6081-12.161 7.6172-17.105 8.0181-4.9445 0.4009-18.341-2.0713-22.484-6.8154-4.1427-4.744-4.4099-11.493-4.1427-14.833 0.26727-3.3409 4.2095-12.495 12.428-15.034s13.965-4.8777 22.25-2.6059 13.397 7.9513 13.397 7.9513z" stroke-width="1.6"/>
  <path d="m34.611 266.93s-3.675 1.2027-3.4745 2.4054c0.20045 1.2027 1.1359 2.5391 2.6059 2.7395 1.47 0.20045 3.7418-0.46773 3.4077-2.205s-1.5368-2.8063-2.5391-2.94z" stroke-width="1.6"/>
 </g>
</svg>
