<svg width="300" height="300" version="1.1" viewBox="0 0 79.375 79.375" xmlns="http://www.w3.org/2000/svg">
 <g transform="translate(0 -217.62)" fill="none" stroke="#000" stroke-linecap="round" stroke-linejoin="round" stroke-width="1.6">
  <path d="m30.427 239.55 1.8899 25.702"/>
  <path d="m35.53 238.41 1.8899 25.891"/>
  <path d="m32.317 265.25s-4.016 2.6931-2.7876 5.6696c1.2284 2.9766 4.016 6.4728 8.6462 7.5123 4.6302 1.0394 13.087-0.8032 14.08-1.8899 0.99219-1.0867 5.5279-5.9531 1.7954-10.205-3.7325-4.2522-8.3155-5.0554-11.765-4.8664-3.449 0.18899-9.9691 3.7798-9.9691 3.7798"/>
  <path d="m31.089 274.7c0 0.18898-2.5513 4.016-1.5119 5.7169 1.0394 1.7009 2.8821-0.0472 2.8821-0.0472s1.2757-2.1734 1.2284-3.5908"/>
  <path d="m36.002 278.48s-1.3229 3.7798-0.18899 4.4412c1.1339 0.66146 3.3073 0.66146 4.2995-0.99218 0.99219-1.6536 1.2757-2.0789 1.1339-2.6458"/>
  <path d="m46.491 278.81s-0.70871 7.276 0.56696 7.5595 2.9293-0.61421 3.0238-2.0789c0.0945-1.4647 0.51972-6.6146 0.51972-6.6146"/>
  <path d="m51.594 277.39s2.8348 6.0949 3.827 4.9137c0.99219-1.1812 1.7009-2.0316 1.2757-3.26-0.42522-1.2284-1.7954-3.3545-1.7954-3.3545"/>
  <path d="m36.711 237.8s-10.253 3.4018-11.15-0.8032c-0.89769-4.205-0.51972-5.1499 0.18899-5.9531 0.7087-0.80319 4.0632-2.9293 6.8508-2.3151 2.7876 0.61421 5.9059 2.1261 5.7641 5.1027s-1.6536 3.9688-1.6536 3.9688z"/>
  <path d="m24.852 231.33 0.28348-4.4412 1.9844 3.1656"/>
  <path d="m34.396 228.82 2.0316-2.7403 1.1339 4.1577"/>
  <path d="m22.442 235.53 3.8743-0.37797"/>
  <path d="m38.317 234.02 4.9137 0.0945"/>
  <path d="m28.584 235.48s-0.09449 1.7954 1.2757 1.8899c1.3702 0.0945 2.1261-0.61422 2.3151-1.4174 0.18899-0.80319 0.70871 1.6064 2.1261 0.75596 1.4174-0.85045 1.2757-1.7481 1.2757-1.7481"/>
  <path d="m29.435 231.89-0.28348 0.89769"/>
  <path d="m34.254 231.61v0.7087"/>
 </g>
</svg>
