<svg width="300" height="300" version="1.1" viewBox="0 0 79.375 79.375" xmlns="http://www.w3.org/2000/svg">
 <g transform="translate(0 -217.62)" fill="none" stroke="#000" stroke-linecap="round" stroke-linejoin="round" stroke-width="1.6">
  <path d="m17.773 239.94s9.3544-7.8845 22.317-6.0136 20.312 3.4745 27.128 15.502 4.6772 24.722 0.66817 28.197c-4.009 3.4745-21.916 9.6217-30.736 7.0826-8.8199-2.5391-26.593-8.0181-27.93-16.972-1.3363-8.9535 2.1382-19.912 4.1427-22.451 2.0045-2.5391 4.4099-5.3454 4.4099-5.3454z"/>
  <path d="m14.032 260.78c0.4009-1.7372 5.6127-6.8154 9.0872-6.4145s11.092 4.1427 11.626 5.0781c0.53454 0.93544-3.0736 7.2163-6.4145 7.8844-3.3409 0.66818-9.6217-0.13363-11.893-2.94s-2.4054-3.6081-2.4054-3.6081z"/>
  <path d="m14.032 260.78-2.3144-3.2362-0.33073 6.2366z"/>
  <path d="m46.572 255.77s0.26727 9.6217 0.66817 9.4881c0.4009-0.13363 12.428-0.66817 12.428-1.3364 0-0.66817-0.46772-9.0203-0.46772-9.0203z"/>
  <path d="m42.696 253.9 0.66817 1.1359"/>
  <path d="m39.422 250.76 0.20045 0.40091"/>
  <path d="m44.5 249.83v0.93544"/>
  <path d="m47.841 248.89 0.66817 1.1359"/>
  <path d="m48.777 252.3-0.20045 0.53454"/>
  <path d="m52.986 250.96 0.66817 0.0668"/>
  <path d="m43.03 256.51v0.60135"/>
  <path d="m39.556 255.11 0.06682 0.40091"/>
  <path d="m43.832 260.45 0.06682 0.66818"/>
  <path d="m45.77 266.4 0.26727 0.66817"/>
  <path d="m45.369 269.4 0.53454 0.73499"/>
  <path d="m43.765 268.4-0.4009 1.4032"/>
  <path d="m40.959 268.13-0.4009-0.20045"/>
  <path d="m40.625 264.79 0.53454 0.0668"/>
  <path d="m41.627 260.38-0.4009-0.33408"/>
  <path d="m34.478 260.32-3.2741 1.2027"/>
  <path d="m29.066 260.32-0.66817 0.13363s-0.13364 0.40091-0.20045-0.4009c-0.06681-0.80181 0.06682-1.2027 0.46772-0.93545 0.4009 0.26727 0.60136 0.13364 0.66817 0.66818 0.06682 0.53454-0.26727 0.53454-0.26727 0.53454z"/>
 </g>
</svg>
