<svg width="300" height="300" version="1.1" viewBox="0 0 79.375 79.375" xmlns="http://www.w3.org/2000/svg">
 <g transform="translate(0 -217.62)" fill="none" stroke="#000" stroke-linecap="round" stroke-linejoin="round" stroke-width="1.6">
  <path d="m38.648 253.15-5.1027 0.94494s1.4647 13.324 3.8743 13.56c2.4096 0.23623 6.6146 1.0394 7.1343-0.51972 0.51972-1.5592 1.0867-8.4572 0.23623-10.158-0.85044-1.7009-0.14174-2.5513-6.1421-3.827z"/>
  <path d="m36.664 253.82-2.0316 4.8664"/>
  <path d="m38.648 253.15c0.33073 1.1339-3.2128 8.8352-3.2128 8.8352"/>
  <path d="m42.144 255.38c-0.28348 0.33073-5.5751 8.6934-5.5751 8.6934"/>
  <path d="m44.081 257.22-6.2366 9.6856"/>
  <path d="m44.318 261.19-4.1105 6.4256"/>
  <path d="m34.632 258.68 7.9847 8.6462"/>
  <path d="m35.719 254.57 8.5517 10.725"/>
  <path d="m39.546 254.43 4.7719 6.7563"/>
  <path d="m40.821 268.51-0.14174 3.9215"/>
  <path d="m6.9926 273.38s12.568 1.1339 16.536 0.56696c3.9687-0.56696 17.481-1.0394 21.261-1.8899 3.7798-0.85045 13.04-1.8899 15.308-1.5119 2.2679 0.37797 10.205-0.18899 11.717 0.37797"/>
  <path d="m35.435 261.99s-7.654-0.89769-7.276-6.0949c0.37798-5.1972 2.9293-10.205 7.0871-11.056 4.1577-0.85044 8.6935 1.0394 11.056 5.9531s2.2679 4.6302 1.8899 6.1421c-0.37798 1.5119-2.3624 4.1577-2.3624 4.1577"/>
  <path d="m35.213 266s-8.0849 0.80181-10.49-1.47c-2.4054-2.2718-5.1449-2.94-5.8799-4.41-0.73499-1.47-3.9422-8.1517-0.86863-15.903 3.0736-7.7508 4.4768-11.894 9.2876-13.029 4.8109-1.1359 11.225-1.47 16.303 0.73499 5.0781 2.205 8.2185 7.6172 9.3544 10.758 1.1359 3.1404 3.2072 8.0849 1.4032 12.428-1.8041 4.3431-5.1449 7.1495-6.4145 7.684-1.2695 0.53454-2.4054 1.0691-2.4054 1.0691"/>
  <path d="m31.454 240.56s-0.90204 1.2194-1.4199 0.81851c-0.51783-0.40091-1.2695-1.0023-0.43431-1.921 0.83522-0.91874 2.5558-0.43431 1.9377 0.36749-0.61806 0.80181-1.4867 1.2862-1.4533 0.71829 0.03341-0.56795 0.63476-0.86862 0.63476-0.86862"/>
  <path d="m41.711 240.91s-1.7038-2.0546-1.1025-2.1382c0.60136-0.0835 1.4032 0.46772 1.4366 0.86863 0.03341 0.4009-0.33409 1.2695-0.33409 1.2695z"/>
 </g>
</svg>
