<svg width="300" height="300" version="1.1" viewBox="0 0 79.375 79.375" xmlns="http://www.w3.org/2000/svg">
 <g transform="translate(0 -217.62)" fill="none" stroke="#000" stroke-linecap="round" stroke-linejoin="round" stroke-width="1.6">
  <path d="m13.607 262.89 5.1027-6.4256s6.8036-5.1972 11.245-6.9926c4.4412-1.7954 13.891-3.0238 19.56 1.0394 5.6696 4.0632 7.1815 6.4256 11.339 8.41 4.1577 1.9844 4.3467 2.2679 4.3467 2.2679s-4.2522 6.8981-11.339 8.41c-7.0871 1.5119-24.096 2.7403-25.419 2.4568s-6.1421-0.47247-14.836-9.1659z"/>
  <path d="m13.607 262.89s-0.47247 4.5357-1.2284 5.0082-2.5513 3.1183-3.6853-1.2284-0.18899-8.599 0.94494-8.6934c1.1339-0.0945 3.1183 3.0238 3.9688 4.9137"/>
  <path d="m65.201 261.19s-0.99219 4.6774 0.23624 4.7719c1.2284 0.0945 2.9766-0.66145 3.4963-2.4568 0.51972-1.7954 1.2757-4.4412 0.23624-5.6224-1.0394-1.1812-2.3624-1.7954-3.1655 0.75596l-0.8032 2.5513"/>
  <path d="m13.607 262.89s19.2-1.0336 20.136-1.3677c0.93544-0.33409 21.248-0.80181 22.05-0.46772 0.80181 0.33408 9.4084 0.13451 9.4084 0.13451"/>
  <path d="m13.607 262.89s8.1753 0.63684 10.714 1.7059c2.5391 1.0691 4.8777 1.5368 8.8199 1.6704 3.9422 0.13364 8.1517 0.0668 9.6217-0.86862 1.47-0.93544 3.4077-1.4032 5.0781-1.8041 1.6704-0.40091 5.0113-1.2027 6.2808-1.3364 1.2695-0.13363 2.4054-0.46772 3.675-0.66817 1.2695-0.20046 7.4039-0.40003 7.4039-0.40003"/>
  <path d="m26.46 260.95s-3.4745 0.30068-3.4077-1.9711c0.06682-2.2718 1.7373-3.675 3.4745-3.2406 1.7373 0.43431 2.5725 1.3029 2.5057 2.5056-0.06682 1.2027-0.60136 2.1047-1.1693 2.3386-0.56795 0.23386-1.4032 0.36749-1.4032 0.36749z"/>
  <path d="m39.122 258.65s-1.7707 1.5034-2.9734-0.36749c-1.2027-1.8709-1.5702-4.5102-0.20045-4.8443 1.3698-0.33409 3.2406-0.10023 4.0424 1.6036 0.80181 1.7038-0.86862 3.6081-0.86862 3.6081z"/>
  <path d="m49.578 259.42s-2.5725-0.16704-2.9734-2.5056c-0.4009-2.3386 0.33409-3.107 1.4366-3.2072 1.1025-0.10023 2.4054 0.23386 3.0736 1.3698 0.66818 1.1359 1.2027 2.6727 0.90204 3.1738-0.30068 0.50113-1.5368 1.2361-1.8041 1.2361s-0.86863-0.10023-0.86863-0.10023z"/>
  <path d="m26.56 259.48-0.73499-0.43431 0.66817-0.73499 0.70158 0.30067-0.46772 0.86863z"/>
  <path d="m38.119 257.68c-0.13364-0.0334-0.60136-0.26727-0.56795-0.60136 0.03341-0.33408 0.53454-0.93544 0.53454-0.93544l0.33409 0.60136z"/>
  <path d="m49.311 258.08-0.53454-0.735 0.50113-0.33408 0.60136 0.53454s0.16704 0.36749-0.03341 0.36749c-0.20045 0-0.53454 0.16705-0.53454 0.16705z"/>
  <path d="m35.113 247.76-0.16704-4.7106"/>
  <path d="m38.387 247.56 0.13364-5.0781"/>
  <path d="m37.685 242.48s-2.8731 1.2695-3.6081 0.66817c-0.73499-0.60136-1.7707-1.9043-1.0023-2.9066 0.7684-1.0023 2.6393-1.47 3.3075-0.7684 0.66817 0.70159 1.4032 2.1382 1.4032 2.4388s-0.10023 0.56795-0.10023 0.56795z"/>
 </g>
</svg>
