<svg width="300" height="300" version="1.1" viewBox="0 0 79.375 79.375" xmlns="http://www.w3.org/2000/svg">
 <g transform="translate(0 -217.62)" fill="none" stroke="#000" stroke-linecap="round" stroke-linejoin="round" stroke-width="1.6">
  <path d="m48.097 245.97s-6.8981 2.4568-12.851 0c-5.9531-2.4568-7.276-5.6696-4.3467-7.1815 2.9293-1.5119 11.339-1.7009 13.418-1.5119s6.9926 1.2284 7.276 2.1734c0.28348 0.94495 0.28348 4.2522-0.66146 4.8192s-2.8348 1.7009-2.8348 1.7009z"/>
  <path d="m29.955 243.14s0.47247 4.9137 0.94494 5.3862c0.47247 0.47247 0.37798 13.796 0.37798 13.796"/>
  <path d="m52.633 242.85s-0.56696 8.9769-1.3229 11.812c-0.75595 2.8348-0.56696 8.1265-0.56696 8.1265"/>
  <path d="m31.278 262.32s5.8586-0.28348 8.5045 0.94494c2.6458 1.2284 6.2366 2.3624 8.599 0.94495l2.3624-1.4174"/>
  <path d="m38.554 263.55s-1.6064 5.7641-1.7009 7.9375c-0.09449 2.1734-0.09449 16.064-0.09449 16.064"/>
  <path d="m41.105 264.31-0.09449 22.301"/>
  <path d="m40.538 241.91s-3.7798 0-4.5357-1.8899 0.37798-4.3467 1.5119-5.0082c1.1339-0.66145 3.6853-1.6064 4.6302-0.47247 0.94494 1.1339 2.2679 4.8192 1.2284 5.5752-1.0394 0.75596-2.8348 1.7954-2.8348 1.7954z"/>
  <path d="m38.412 240.35-1.0394-1.3229 0.51972-2.1734 1.3229-0.99219 1.3702-0.18899s0.85044 0.47247 0.89769 0.66146c0.04725 0.18899 0.56696 1.4647 0.56696 1.4647v1.0394l-0.47247 0.8032-0.89769 0.51972-1.4174 0.28348-0.85045-0.94494-0.14174-1.4647 0.75595-1.3702 1.2757-0.18899 0.94494 0.75595 0.18899 0.94494-0.7087 1.0394-1.1339 0.18899-0.28348-0.85045 0.47247-1.2284 0.8032 0.56696-0.23624 0.61421h-0.33073"/>
  <path d="m40.018 231.28-0.04725 2.8821"/>
 </g>
</svg>
