<svg width="300" height="300" version="1.1" viewBox="0 0 79.375 79.375" xmlns="http://www.w3.org/2000/svg">
 <g transform="translate(0 -217.62)" fill="none" stroke="#000" stroke-linecap="round" stroke-linejoin="round" stroke-width="1.6">
  <path d="m20.883 263.93s0.85045-8.599 4.5357-11.906c3.6853-3.3073 9.8274-5.6696 13.135-5.8586s10.961-0.18899 14.363 2.3624 5.1027 5.8586 5.6696 8.221c0.56696 2.3624 1.7954 7.654 1.7954 7.654l-38.648 1.6064 0.09449-3.7798"/>
  <path d="m27.97 265.06s0.94494-4.0632 2.2679-4.4412c1.3229-0.37797 3.7798-0.85045 4.2522-0.47247 0.47247 0.37798 2.4568 5.1972 2.4568 5.1972"/>
  <path d="m46.869 264.12s0.28348-5.2917 2.5513-5.0082c2.2679 0.28348 4.2522 1.6064 4.6302 2.4568 0.37798 0.85045 0.75596 2.7403 0.75596 2.7403"/>
  <path d="m32.884 233.03 1.7954 13.513"/>
  <path d="m43.94 233.69 2.2679 12.473"/>
  <path d="m31.278 260.9-1.4174 18.71s0.18899 3.8743 1.5119 3.9688c1.3229 0.0945 1.7009 0.0945 2.4568-0.66146 0.75595-0.75595 0.94494-3.4963 0.94494-4.0632 0-0.56696 0.18899-16.914 0.18899-16.914"/>
  <path d="m32.64 261.59-1.3363 17.64 0.26727 2.4054 0.53454 0.43432 0.73499-0.53455 0.4009-2.5391 0.50113-17.406-0.43431-0.43432-0.3675 1.1359-1.2361 17.239 0.56795 1.5702 0.3675-1.5702 0.63476-16.972"/>
 </g>
</svg>
