<svg width="300" height="300" version="1.1" viewBox="0 0 79.375 79.375" xmlns="http://www.w3.org/2000/svg">
 <g transform="translate(0 -217.62)" fill="none" stroke="#000" stroke-linecap="round" stroke-linejoin="round" stroke-width="1.6">
  <path d="m22.301 243.33s1.5119 3.6853 4.9137 1.7954c3.4018-1.8899 5.5751 0.28348 6.8036 1.0394 1.2284 0.75596 5.5751-2.1734 6.3311-3.1183 0.75595-0.94494 2.9293 4.1577 4.1577 3.9688 1.2284-0.18899 5.4807-6.3311 7.1815-3.2128 1.7009 3.1183 1.0394 4.2522 3.4018 2.1734 2.3624-2.0789 3.6853-3.1183 5.1027-1.7954"/>
  <path d="m22.301 243.33-11.528 26.647"/>
  <path d="m60.193 244.18s3.5908 5.5752 4.1577 8.5045c0.56696 2.9293 2.1734 6.1421 3.6853 9.4494 1.5119 3.3073 2.7403 9.2604 2.7403 9.2604"/>
  <path d="m13.04 271.3s6.0476 1.4174 8.221 0.94494c2.1734-0.47247 11.056 0.66146 12.19 0.85045 1.1339 0.18898 33.262-1.8899 33.734-1.8899 0.47247 0 3.5908 0.18899 3.5908 0.18899"/>
  <path d="m26.727 250.96 0.66818 4.9445"/>
  <path d="m26.727 250.96s10.156 0.60136 10.624 1.3364c0.46772 0.73499 0.33409 5.6127 0.06682 5.6127-0.26727 0-10.023-2.0045-10.023-2.0045"/>
  <path d="m28.197 252.37 0.73499 2.5391 1.0691-2.6059 0.86863 3.1404s0.80181-3.4745 1.0023-2.7395c0.20045 0.73499 0.73499 3.1404 0.73499 3.1404l0.80181-2.6059 0.86862 2.6727 0.73499-2.7395 0.4009 2.8063 0.60136-2.1382"/>
  <path d="m44.768 252.7s-2.0045 5.2786-0.20045 5.6127c1.8041 0.33408 8.9535 0.26726 8.9535 0.26726s5.9467-0.0668 6.214-1.6036c0.26727-1.5368 0.46772-5.0113-0.4009-5.0781-0.86863-0.0668-14.032-0.0668-14.566 0.80181z"/>
  <path d="m45.837 253.77-0.13363 3.6081 1.3363-3.8086 0.46772 3.9422 1.2027-4.0759 0.73499 4.0759 1.0691-4.009 0.60136 4.009 1.0023-4.009 0.86862 4.2095 1.0023-4.2763 0.73499 3.9422 0.93544-4.2095 0.86862 4.0759 0.60136-4.1427 1.0691 3.8086 0.4009-3.4745"/>
  <path d="m29.801 260.12s-0.53454 4.0759 1.2027 4.009c1.7373-0.0668 2.8063-0.20046 3.0736-2.2718 0.26727-2.0713 0-2.6059-2.1382-2.7395-2.1382-0.13363-2.1382 1.0023-2.1382 1.0023z"/>
  <path d="m31.07 260.58 0.26727 2.6059s1.2695-0.33408 1.2695-0.66817 0.20045-2.1382 0.20045-2.1382l-0.93544-0.13363-0.13364 1.6704 0.26727 0.86863 0.13363-1.47"/>
  <path d="m52.986 260.18s-1.8709 1.8041-1.6036 2.8063c0.26727 1.0023 0.53454 2.8063 2.0045 2.4722 1.47-0.33409 2.2718-2.3386 2.3386-3.2741 0.06682-0.93544-1.1359-2.2718-1.47-2.2718-0.33409 0-1.2695 0.26727-1.2695 0.26727z"/>
  <path d="m53.922 261.45-1.2027 1.1359 0.33409 1.3363s0.73499-0.26726 0.86863-0.53453c0.13363-0.26727 0.53454-1.1359 0.53454-1.1359l-0.73499 0.33409"/>
  <path d="m36.616 266.73c0.80181 0.0668 10.891 0.60136 10.891 0.60136s-1.3363 3.6081-3.9422 3.8086c-2.6059 0.20046-4.6104 0.73499-6.949-4.41z"/>
 </g>
</svg>
