<svg width="300" height="300" version="1.1" viewBox="0 0 79.375 79.375" xmlns="http://www.w3.org/2000/svg">
 <g transform="translate(0 -217.62)" fill="none" stroke="#000" stroke-linecap="round" stroke-linejoin="round" stroke-width="1.6">
  <path d="m26.364 273s-3.7798 0.56697-3.4963-4.3467c0.28348-4.9137 2.1734-17.481 4.6302-18.521 2.4568-1.0394 33.167-2.3624 34.49-1.8899 1.3229 0.47247 5.8586 1.2284 5.4807 11.623-0.37798 10.394-0.09449 11.717-3.4963 12.001-3.4018 0.28349-37.609 1.1339-37.609 1.1339z"/>
  <path d="m22.206 273.47-13.04-1.7009v-11.906l14.93-0.28348z"/>
  <path d="m45.924 247.96-0.66146-5.6696s-4.2995 0.66145-4.7719-1.2993c-0.47247-1.9608-0.04725-5.7878 2.0552-6.024 2.1025-0.23624 5.3153 0.61421 5.3389 2.6931 0.02362 2.0789-0.70871 3.3782-1.3229 3.7561-0.61421 0.37797-1.2993 0.87407-1.2993 0.87407"/>
  <path d="m42.073 236.24 5.1027 1.2284"/>
  <path d="m41.554 238.6 5.2917 1.1812"/>
  <path d="m44.105 235.6-1.8426 5.7641"/>
  <path d="m46.089 236.03-1.1339 5.4806"/>
  <path d="m44.648 242.62s-2.5479 2.8079-4.4885 1.2048c-0.81501-0.67327-0.70871-1.7718-0.63784-2.7167 0.07087-0.94494 0-1.1103 0-1.1103s-2.8703-0.90951-3.0356-1.76c-0.16536-0.85045 0.5079-1.9253 1.9726-1.7836 1.4647 0.14174 1.7718 0.14174 1.7718 0.14174s-0.16536-5.1027 1.3938-3.6144c1.5592 1.4883 1.6064 1.5119 1.6064 1.5119s2.3387-2.4332 2.9766-0.96857c0.63783 1.4647 0.68508 1.5828 0.68508 1.5828s3.827-0.77958 3.6853 0.94494c-0.14174 1.7245-1.9608 2.1734-1.9608 2.1734s4.0042 5.5161 1.0749 4.3585c-2.9293-1.1576-2.5159-0.90951-2.5159-0.90951s1.8781 5.0318-2.5277 0.94495z"/>
  <path d="m26.364 273s-2.8441 4.5576-0.23824 4.424c2.6059-0.13364 3.2741-0.16705 2.6727-2.0713-0.60136-1.9043-1.47-3.0736-1.47-3.0736"/>
  <path d="m63.477 272.51s-2.0379 5.7129 1.0023 4.1093c3.0402-1.6036 3.7084-2.0379 2.0045-4.8443"/>
  <path d="m30.049 252.59 0.37798 10.016s8.1265 0.56696 7.5595-0.47247c-0.56696-1.0394-1.4174-3.0238-1.2284-4.3467 0.18899-1.3229 0.09449-4.0632 0.09449-4.0632l-0.66146-0.85045z"/>
 </g>
</svg>
