<svg width="300" height="300" version="1.1" viewBox="0 0 79.375 79.375" xmlns="http://www.w3.org/2000/svg">
 <g transform="translate(0 -217.62)" fill="none" stroke="#000" stroke-linecap="round" stroke-linejoin="round" stroke-width="1.6">
  <path d="m15.308 258.92s11.528-1.0394 16.914-0.56697c5.3862 0.47248 14.08 1.4174 16.158 0.94494 2.0789-0.47246 6.6146 0.37798 13.135 0.18899s6.2366-0.18899 6.2366-0.18899"/>
  <path d="m15.308 258.92s2.4568 9.1659 2.4568 10.111 2.3624 6.3311 5.7641 7.9375c3.4018 1.6064 12.284 7.654 19.182 6.4256 6.8981-1.2284 16.253-4.1577 18.804-7.0871 2.5513-2.9293 6.1421-8.7879 6.5201-11.434 0.37798-2.6458-0.28348-5.5752-0.28348-5.5752"/>
  <path d="m28.348 258.16s-0.37798 8.3155 2.0789 8.032 2.1734 0.47247 2.8348-2.1734c0.66146-2.6458 0.37798-5.4807 0.37798-5.4807"/>
  <path d="m52.539 260.05 0.37798 4.2522s0.37798 1.9844 1.9844 1.6064c1.6064-0.37798 1.8899 0.28348 1.7009-1.7009-0.18899-1.9844-0.37798-4.3467-0.37798-4.3467"/>
  <path d="m45.641 258.45s-22.868-0.85045-21.734-8.032c1.1339-7.1815 2.0789-8.6934 8.7879-10.205 6.7091-1.5119 12.095-1.8899 17.103 1.0394 5.0082 2.9293 6.6146 4.2522 7.276 7.843 0.66146 3.5908 0.94494 6.9926-1.7954 8.9769-2.7403 1.9844-9.6384 0.37798-9.6384 0.37798z"/>
  <path d="m28.537 240.97s-0.37798-4.5357 1.2284-4.9137c1.6064-0.37798 3.1183 0.37798 3.6853 1.4174s1.2284 2.1734 1.2284 2.1734"/>
  <path d="m51.783 241.82s3.7798-2.1734 4.2522-1.8899c0.47247 0.28349 0.47247 5.7641 0.47247 5.7641"/>
  <path d="m35.831 247.13-0.502 0.31301-0.23033 0.51972 0.22442 0.38978 0.38979-0.14764s0.28348-0.27758 0.28348-0.33073c0-0.0532-0.07678-0.58468-0.07678-0.58468"/>
  <path d="m45.694 248.05-0.48428 0.32482-0.19489 0.4016 0.1063 0.49019 0.54925-0.065 0.19489-0.48428-0.04725-0.33663"/>
  <path d="m35.881 251.38c0.03341 0.11693-0.18375 1.6537 0.43431 2.205 0.61806 0.55124 1.7373 1.6871 2.0713 1.4032 0.33409-0.28397 1.3196-2.7395 1.3196-2.7395s0.98556 2.4555 1.5368 2.5892c0.55124 0.13364 0.63477 0.0668 1.6871-1.1526 1.0524-1.2194 0.85192-1.0691 0.85192-1.0691"/>
  <path d="m25.891 247.84-3.2364-1.0394"/>
  <path d="m26.104 249.68-3.5199 0.0236"/>
  <path d="m55.681 250.3 4.1814-0.28349"/>
  <path d="m56.484 252.16 3.638 1.3938"/>
 </g>
</svg>
