<svg width="300" height="300" version="1.1" viewBox="0 0 79.375 79.375" xmlns="http://www.w3.org/2000/svg">
 <g transform="translate(0 -217.62)" fill="none" stroke="#000" stroke-linecap="round" stroke-linejoin="round" stroke-width="1.6">
  <path d="m18.909 259.18s-4.5436-0.46772-5.2786-0.20045c-0.73499 0.26727-2.1382 7.3499-1.1359 9.0204 1.0023 1.6704 5.2118 5.479 8.419 4.6772 3.2072-0.80181 6.214-3.0736 6.1472-6.0136-0.06682-2.94-1.5368-6.6149-3.2072-7.1495s-4.9445-0.33409-4.9445-0.33409z"/>
  <path d="m20.379 262.52c-0.66817 0-4.1427 0.66817-4.2763 2.0713-0.13364 1.4032 0.53454 3.3409 1.9377 3.4745 1.4032 0.13364 4.3431 1.2027 4.6772-1.0691 0.33409-2.2718 0.4009-2.7395-0.60136-3.6081-1.0023-0.86863-1.7373-0.86863-1.7373-0.86863z"/>
  <path d="m18.592 258.4s-0.96856-7.465 3.0947-10.3 5.7169-4.8664 12.615-4.8192c6.8981 0.0472 14.505 2.9293 17.67 6.5201 3.1656 3.5908 4.6775 7.4178 5.0082 10.489 0.33073 3.0711 1.5119 7.7013-2.3624 12.237-3.8743 4.5357-4.394 5.6224-10.489 6.3784-6.0949 0.75595-10.253 0.56696-11.576 0.33073-1.3229-0.23624-6.1421-2.0316-6.9926-2.5041-0.85045-0.47247-3.827-2.1261-3.8743-2.5986-0.04725-0.47247-0.18899-0.94494-0.18899-0.94494"/>
  <path d="m27.781 264.02 29.199-0.18899"/>
  <path d="m41.01 263.64 0.37798-8.221s4.6302-3.1183 5.1972-1.9844c0.56696 1.1339 0.56696 2.6458-0.18899 2.8348-0.75595 0.18898 0.94494 0.0945 1.2284 1.1339 0.28348 1.0394 0.09449 1.7009-0.47247 1.7954-0.56696 0.0945-1.2284 0.28348-1.2284 0.28348s2.8348-0.0945 2.5513 0.56697c-0.28348 0.66145-1.0394 1.1339-1.0394 1.1339s1.1339 0 1.2284 0.94494c0.09449 0.94494-0.09449 1.3229-0.09449 1.3229"/>
  <path d="m56.294 256.07c0.56795-0.13363 5.3788-1.5368 5.3788-1.5368s4.6772-0.50113 4.7774 0.63477c0.10022 1.1359-2.1382 3.1738-2.1382 3.1738s3.6415-0.43431 3.675 0.7684c0.03341 1.2027 0.03341 1.9043-0.60136 2.0713-0.63476 0.16705-1.1693 0.23386-1.1693 0.23386s2.2718 0.20046 1.8709 1.6704-1.0023 2.0045-1.2361 2.205c-0.23386 0.20045-1.0357 0.7684-1.0357 0.7684s2.0045-0.0668 2.2384 1.1693c0.23386 1.2361 0.03341 1.8375-0.4009 2.0713-0.43431 0.23387 1.3029 1.2695-4.6772 0.30068-5.9802-0.96885-5.9802-1.3029-5.9802-1.3029"/>
  <path d="m32.695 242.95s-0.56696-6.0476-0.33073-6.4256 0.51972-0.37798 0.51972-0.37798 0.47247 0.0472 0.89769 0.85045c0.42522 0.8032 1.0394 0.7087 1.0394 0.7087s0.99219-5.5279 1.7954-4.7719c0.8032 0.75595 3.1183 4.9609 3.1183 4.9609s3.26-4.583 3.7798-3.4963c0.51972 1.0867 0.51972 2.2679 0.7087 2.5041 0.18899 0.23623 0.18899 0.23623 0.18899 0.23623s2.2679-0.8032 2.9293-0.28348 1.0867 0.94494 1.2284 1.9371c0.14174 0.99218 0.18899 1.5119 0.18899 1.5119s1.8899-0.42522 2.2679 1.0867c0.37798 1.5119 0.23624 3.3545-0.33073 4.0632-0.56696 0.7087-1.3702 1.7009-1.3702 1.7009"/>
  <path d="m34.963 243.42s1.7009 2.2679 0.18899 6.2366c-1.5119 3.9688-7.3705 14.363-7.3705 14.363"/>
  <path d="m26.836 254.41s-2.1734 1.2284-2.8584 0.16536c-0.68508-1.0631-0.99219-1.3229-0.77958-2.197 0.21261-0.87408 0.77958-2.2679 1.4174-2.4332 0.63784-0.16536 2.5277-0.42522 2.9529 0.0709 0.42522 0.4961 0.73233 1.2048 0.73233 1.6773s0.07087 1.6064-0.0945 1.8426c-0.16536 0.23623-0.35435 0.61421-0.66146 0.7087-0.3071 0.0945-2.6931 0.4961-2.8821 0.33073-0.18899-0.16536-1.1103-2.0316-0.82682-2.6458 0.28348-0.61421 0.25986-1.3702 1.1339-1.441 0.87407-0.0709 1.6536-0.30711 1.9608-0.0945 0.30711 0.21261 0.68508 1.1103 0.68508 1.1812 0 0.0709 0.04725 1.2757 0 1.4174s0.07087 0.63783-0.37798 0.75595c-0.44885 0.11812-1.4883 0.3071-1.7954 0.3071s-0.4016 0.16537-0.68508-0.37797-0.85045-0.42522-0.42522-1.3702c0.42522-0.94495 0.75595-1.2048 0.92132-1.2048s0.18899-0.4016 0.87407-0.14175c0.68508 0.25986 0.73233-0.0236 0.89769 0.59059 0.16536 0.61421 0.33073 0.99219 0.07087 1.3465-0.25986 0.35436-0.51972 0.82683-1.2284 0.68509-0.7087-0.14175-1.2993-1.1103-1.252-1.2757 0.04725-0.16537 0.66146-0.68509 0.92132-0.73233 0.25986-0.0472 0.66146-0.0236 0.77958 0.25985 0.11812 0.28349 0.18899 0.61422 0.14174 0.82683"/>
 </g>
</svg>
