<svg width="300" height="300" version="1.1" viewBox="0 0 79.375 79.375" xmlns="http://www.w3.org/2000/svg">
 <g transform="translate(0 -217.62)" fill="none" stroke="#000" stroke-linecap="round" stroke-linejoin="round" stroke-width="1.6">
  <path d="m12.851 266.1s19.938 2.7403 27.876 0.18898 13.513-3.5908 20.033-15.308l6.5201-11.717s3.1183 4.8192 2.5513 11.056-0.56696 10.3-9.6384 17.009c-9.0714 6.7091-22.301 11.906-27.309 11.906-5.0082 0-15.781 0.85045-20.033-13.135z"/>
  <path d="m16.064 273.38c-0.47247 0-3.5908 0.18899-3.0238 3.8742 0.56696 3.6853 2.8348 5.2917 4.3467 3.8743 1.5119-1.4174 1.9844-4.3467 1.9844-4.3467s0.47247-1.0394-3.8743-1.2284"/>
  <path d="m21.356 277.35s0.56696 5.2917 3.2128 5.8586 3.9687-3.7798 3.9687-3.7798"/>
  <path d="m57.169 269.22s-3.3073 5.9531-1.0394 6.8981c2.2679 0.94494 4.9137-0.37798 4.4412-3.0238-0.47247-2.6458-3.0238-3.6853-3.0238-3.6853"/>
  <path d="m62.933 266.29c-3.0238 6.4256 0.66146 8.788 0.66146 8.788s4.6302-0.37797 5.1027-3.4018c0.47247-3.0238-0.94494-5.2917-3.5908-5.2917-2.6458 0-2.1734-0.0945-2.1734-0.0945z"/>
  <path d="m43.751 265.16s1.8899-5.6696-0.75595-10.678c0 0-3.9687-2.7403-2.9293-4.9137 1.0394-2.1734 3.4018-3.9688 4.6302-1.6064 1.2284 2.3624 1.9844 4.1577-1.7009 6.5201"/>
  <path d="m41.294 247.3s-2.0789-7.087 0.47247-8.5045c2.5513-1.4174 4.3467-0.28349 4.3467-0.28349s3.2128 4.2522 0.94494 6.6146c-2.2679 2.3624-2.5513 2.8348-2.5513 2.8348s2.6458-3.4018 4.7247-2.3624c2.0789 1.0394 3.8743 3.4963 2.5513 4.6302-1.3229 1.1339-3.5908 1.8899-5.8586 1.8899l3.8743 1.7954s1.2284 1.9844 0.56696 3.7798c-0.66146 1.7954-3.4963 1.7954-4.3467 1.0394-0.85045-0.75595-3.0238-4.2522-3.0238-4.2522s-3.0238 7.087-4.9137 4.8192c-1.8899-2.2678-0.56696-6.1421 1.3229-9.0714 0 0-6.8981-1.6064-6.7091-4.3467 0.18899-2.7403 2.9293-2.3624 2.9293-2.3624s3.8743 0.28348 5.6696 3.7798"/>
 </g>
</svg>
