<svg width="300" height="300" version="1.1" viewBox="0 0 79.375 79.375" xmlns="http://www.w3.org/2000/svg">
 <g transform="translate(0 -217.62)" fill="none" stroke="#000" stroke-linecap="round" stroke-linejoin="round" stroke-width="1.6">
  <path d="m54.429 282.83 2.2679-53.484"/>
  <path d="m67.28 283.2c0-0.75595 1.8899-53.295 1.8899-53.295"/>
  <path d="m18.048 283.2 5.1027-7.465"/>
  <path d="m28.159 282.26-5.0082-6.5201-0.66146-19.844"/>
  <path d="m22.49 255.9s-5.2917-3.3073-4.7247-9.0714c0.56696-5.7641 1.9844-8.221 5.7641-8.3155 3.7798-0.0945 7.5595 2.8348 7.465 6.0476-0.0945 3.2128-0.75595 5.7641-1.7954 7.3705-1.0394 1.6064-6.7091 3.9688-6.7091 3.9688"/>
  <path d="m22.49 255.9 -6.9926 5.6696"/>
  <path d="m22.49 255.9 10.205 3.4018"/>
  <path d="m33.073 255.42s-1.1339 8.1265-0.75595 8.3155c0.37798 0.18899 3.7798 1.1339 3.7798 1.1339l1.1339-8.8824z"/>
 </g>
</svg>
