<svg width="300" height="300" version="1.1" viewBox="0 0 79.375 79.375" xmlns="http://www.w3.org/2000/svg" xmlns:xlink="http://www.w3.org/1999/xlink">
 <g transform="translate(0 -217.62)" fill="none" stroke="#000" stroke-linecap="round" stroke-linejoin="round" stroke-width="1.6">
  <path d="m55.993 265.46s4.9445-4.8777 7.2831-3.6081c2.3386 1.2695 4.009 3.8086 3.6081 6.6149s-1.9377 5.6127-4.4099 5.2118-6.6149-1.2027-7.0158-3.7418 0.53454-4.4768 0.53454-4.4768z"/>
  <path d="m57.931 263.72s-1.0691-1.2695-1.0691-2.6727 0.33409-1.8709 1.6036-0.33409c1.2695 1.5368 1.5368 1.2695 1.5368 1.2695s-0.60136-5.0113 0.86862-4.744c1.47 0.26727 1.7373 4.1427 1.7373 4.1427l1.4032 0.735s1.6036-2.1382 2.6727-1.9377-0.93544 3.5413-0.93544 3.5413l4.0759 1.2027-2.5391 2.1382 2.0713 4.0759-2.8063 0.20046 0.60136 4.6772-3.7418-2.0045-2.205 3.3409-2.205-4.2763-5.4122 2.6059 1.4032-5.3454s-4.5436-3.3409-4.009-3.8754c0.53454-0.53454 4.4391-0.34039 4.4391-0.34039s-2.1734-4.2286-1.7718-4.7956c0.4016-0.56697 4.2817 2.3964 4.2817 2.3964z"/>
  <path d="m59 259.78 0.4009-10.891-36.549 0.46773s-2.0713 3.4077-1.8709 7.3499c0.20045 3.9422 0.60136 8.8199 0.60136 9.9558s1.47 4.009 1.47 4.009 2.3386 2.4722 7.0826 2.3386c4.744-0.13364 14.232-0.60136 17.038-0.53454 4.6251-0.16135 5.3428-1.4514 7.8176-2.1382"/>
  <path d="m22.852 249.36s-0.80181-5.5458-0.60136-6.4813 2.5391 0.46772 3.3409 2.1382c0.80181 1.6704 1.4032 3.8086 1.4032 3.8086"/>
  <path d="m30.536 248.82s-0.06682-4.6772 0.86862-5.2118c0.93544-0.53454 2.8063-0.53454 3.2741 1.5368 0.46772 2.0713 0.60136 3.9422 0.60136 3.9422"/>
  <path d="m49.044 248.69c0-0.46772-0.33409-5.6127 0.60136-6.4145 0.93544-0.8018 2.6059-0.4009 3.274 1.2695 0.66818 1.6704 0.86863 5.0113 0.86863 5.0113"/>
  <path d="m55.124 247.89-1.0023-7.0158s3.2072 0.33409 3.8086 1.6704c0.60136 1.3364 1.47 6.3476 1.47 6.3476"/>
  <path d="m23.052 270.67s-1.47-0.53454-2.7395 1.1359c-1.2695 1.6704-2.0045 2.8731-5.0113 2.3386-3.0068-0.53454-2.4722-0.33409-3.1404 0.33408"/>
  <path d="m8.8867 279.49s1.0691-3.7418 1.3363-4.2095c0.26727-0.46772 3.4077-0.80181 3.6081 0.60136 0.20045 1.4032-0.4009 1.9377-0.4009 1.9377s-0.60136-0.20045-4.5436 1.6704z"/>
 </g>
 <g fill="none" stroke="#000" stroke-linecap="round" stroke-linejoin="round" stroke-width="1.6">
  <path d="m63.042 50.871-0.06306 0.6096"/>
  <path d="m59.363 51.228-0.16817 0.88288"/>
  <path d="m58.964 48.916s0.44144-0.25225 2.3123-0.46246c1.8709-0.21021 1.8498-0.18919 1.8498-0.18919s0.52552-1.3033 0.04204-1.7027c-0.48348-0.3994-2.018-0.27327-2.018-0.27327s-1.5345 0.42042-1.9129 1.3664c-0.37838 0.94594-0.27327 1.2613-0.27327 1.2613z"/>
 </g>
</svg>
