<svg width="300" height="300" version="1.1" viewBox="0 0 79.375 79.375" xmlns="http://www.w3.org/2000/svg">
 <g transform="translate(0 -217.62)" fill="none" stroke="#000" stroke-linecap="round" stroke-linejoin="round" stroke-width="1.6">
  <path d="m38.034 251.12 1.4174-1.8426 0.56696 2.2678 1.4174 0.28348-0.42522 1.2757 1.1339 0.70871-0.99219 1.3229 0.8032 2.2206-0.42522 1.6064-3.5435-1.4174-1.5592 1.2284 0.47247-2.6458s-3.827 0.33073-3.1183-0.47247c0.7087-0.80319 1.8899-1.7009 1.8899-1.7009l-2.7876-1.0394 2.5513-1.1812v-1.7009z"/>
  <path d="m64.067 273.19s-7.654 9.0714-16.253 7.7485c-8.599-1.3229-23.057-6.8036-24.001-8.032-0.94494-1.2284-8.41-5.6696-8.41-5.6696s-4.0632-3.7798-1.9844-12.568c2.0789-8.788 6.0476-15.497 11.528-17.765 5.4807-2.2679 14.741-6.6146 23.151-5.6696 8.41 0.94494 13.796 6.7091 13.796 6.7091s6.7091 14.93 5.3862 22.962c-1.3229 8.032-3.2128 12.284-3.2128 12.284z"/>
  <path d="m24.946 273.19s3.2128-11.245 5.1027-12.662 4.7956-1.3465 4.7956-1.3465 1.9371 0.35435 2.197 2.6458-1.7718 6.8508-1.7718 6.8508l-2.764 7.8194"/>
  <path d="m64.067 273.19-20.222-12.568s-5.6591-3.6434-2.2848-4.6457c3.3743-1.0023 4.577-1.9377 8.5192-0.50113 3.9422 1.4366 16.738 6.6483 16.738 6.6483"/>
  <path d="m47.574 237.8-3.7418 5.3454 5.7463 2.8063"/>
  <path d="m21.047 245.02 6.6817 3.0736-2.3386 6.6149"/>
 </g>
</svg>
