<svg width="300" height="300" version="1.1" viewBox="0 0 79.375 79.375" xmlns="http://www.w3.org/2000/svg">
 <g transform="translate(0 -217.62)" fill="none" stroke="#000" stroke-linecap="round" stroke-linejoin="round" stroke-width="1.6">
  <path d="m3.0736 277.49s4.009-3.2072 17.64-1.8709c13.631 1.3363 26.059 0.8018 34.611-1.2027 8.5526-2.0045 13.363-6.4145 22.985-3.7418"/>
  <path d="m21.639 276.87s-5.7641-0.66146-5.9531-4.3467 0.85045-7.3705 3.2128-8.032 7.5595-1.8899 9.1659 0.75595 3.1183 4.2522 1.9844 6.4256c-1.1339 2.1734-4.0632 5.9531-8.41 5.1972z"/>
  <path d="m55.374 274.13s-9.4494-0.18899-9.6384-4.2522c-0.18899-4.0632 0.85045-7.3705 3.5908-8.1265 2.7403-0.75595 8.221-1.2284 9.3549 1.6064 1.1339 2.8348 1.7009 6.6146 0 8.41-1.7009 1.7954-3.3073 2.3624-3.3073 2.3624z"/>
  <path d="m21.828 263.64-1.5119-13.04"/>
  <path d="m20.316 250.6 4.4412-3.2128"/>
  <path d="m20.316 250.6 3.9688 1.3229"/>
  <path d="m21.828 263.64 31.467-2.7403"/>
  <path d="m41.388 261.85-0.47247-4.8192"/>
  <path d="m50.932 255.99-18.332 1.1339-0.94494-10.016 18.332-0.47247z"/>
  <path d="m46.639 248.22 2.2718 2.0713"/>
  <path d="m48.71 247.76-1.6704 2.7395"/>
  <path d="m33.308 248.69 2.3386 2.0045"/>
  <path d="m35.413 248.42-1.8375 2.5725"/>
  <path d="m35.213 254.37s-1.5034 0.3675-1.47-0.63476c0.03341-1.0023 1.1359-1.8375 1.637-1.5702 0.50113 0.26727-0.16704 2.205-0.16704 2.205z"/>
  <path d="m48.075 254.6s-1.637-0.46772-1.4032-1.3029 1.1025-2.1716 1.7038-1.2027c0.60136 0.96885 0.80181 1.6036-0.30068 2.5056z"/>
  <path d="m36.983 248.86 0.3675 6.4145s8.2854-0.36749 8.2854-0.73499c0-0.36749-0.56795-5.9802-0.56795-5.9802z"/>
 </g>
</svg>
