<svg width="300" height="300" version="1.1" viewBox="0 0 79.375 79.375" xmlns="http://www.w3.org/2000/svg">
 <g transform="translate(0 -217.62)" fill="none" stroke="#000" stroke-linecap="round" stroke-linejoin="round" stroke-width="1.6">
  <path d="m35.747 242.94c-0.20045 0.26727-6.2808 9.154-4.4099 15.568 1.8709 6.4145 4.3431 11.158 9.5549 12.294 5.2118 1.1359 11.493 1.6704 14.566-0.80181 3.0736-2.4722 6.1472-6.1472 6.6817-9.7553 0.53454-3.6081-0.4009-12.361-3.2072-15.435-2.8063-3.0736-6.0804-6.5481-12.027-6.2808-5.9467 0.26727-8.2185 1.2695-9.154 2.205-0.93544 0.93545-2.0045 2.205-2.0045 2.205z"/>
  <path d="m55.793 242.34-4.4768 4.6104s-3.2741 8.2854-4.2763 9.4881c-1.0023 1.2027-10.49 11.225-10.49 11.225"/>
  <path d="m49.704 237.56s-1.0394-5.0082-7.654-5.0082c-6.6146 0-10.867 0.37798-15.497 4.5357-4.6302 4.1577-6.1421 5.2917-7.5595 10.205-1.4174 4.9137-3.5908 23.812-3.5908 23.812s-0.28348 2.9293-1.0394 4.7247c-0.75595 1.7954-0.75595 1.8899-0.75595 1.8899s10.3 0.66146 16.631-2.0789c6.3311-2.7403 8.221-3.7798 9.2604-5.4806"/>
  <path d="m37.609 240.3c0.09449-1.2284 1.1339-5.2917 1.1339-5.2917l2.7403-2.3624s5.2917 4.7247 3.7798 5.3862c-1.5119 0.66146-6.0476 0.18899-6.0476 0.18899l1.9844-3.4018 2.5513 2.5513-2.0789 0.18898"/>
  <path d="m47.625 237.85s2.8348-4.3467 4.5357-3.3073c1.7009 1.0394 3.6853 5.3862 3.6853 5.3862l-6.1421-2.3624 2.6458-1.6064 1.5119 2.3624-1.7009-0.28349"/>
  <path d="m51.594 261.94s-2.1734-0.85045-1.7009-2.5513c0.47247-1.7009 2.6458-3.2128 3.9688-1.7954 1.3229 1.4174 2.3624 3.2128 1.1339 3.8743-1.2284 0.66146-3.1183 0.85044-3.6853-0.47247-0.56696-1.3229-0.66146-3.0238 0.56696-2.9293 1.2284 0.0945 3.2128 1.5119 2.6458 2.2679s-1.7954 1.6064-2.1734 0.94494-1.0394-2.0789-0.47247-2.1734c0.56696-0.0945 1.4174 0.94494 1.4174 0.94494l-0.66146 0.56696"/>
  <path d="m48.381 264.21-0.56696 0.85044"/>
 </g>
</svg>
