<svg width="300" height="300" version="1.1" viewBox="0 0 79.375 79.375" xmlns="http://www.w3.org/2000/svg">
 <title>寝床を襲ってくるお化け</title>
 <g transform="translate(-42.957 -127.04)" fill="none">
  <g stroke="#000" stroke-linejoin="round" stroke-width="2.2589">
   <path d="m117.8 200.05-67.184 1.0325 0.77223-66.524 63.168 1.6225 3.2434 63.868" stroke-linecap="round"/>
   <path d="m111.62 193.41-52.203 0.59-0.92668-41.301 51.122 0.88501z" stroke-linecap="round"/>
   <path d="m80.335 152.68 0.16381-4.1981"/>
   <path d="m85.386 153-0.27302-4.7717"/>
   <path d="m80.499 148.49s-3.9589-0.88655-4.2046-3.9373c-0.24572-3.0508 2.976-4.9021 2.976-4.9021s4.0408-2.7379 7.399 0.18252c3.3582 2.9204 2.6756 5.3193 2.6756 5.3193s-0.49143 2.8161-4.2319 3.0768c-3.7404 0.26075-4.6141 0.26075-4.6141 0.26075z"/>
   <path d="m76.214 194.59c0.27028 3.3188 1.1197 4.3882 1.1197 4.3882s0.50195 0.4425 0.92668 0.40563c0.42473-0.0368 1.3514-0.0368 1.6989-0.55313 0.3475-0.51626 1.1197-0.95877 1.0425-4.3882"/>
   <path d="m89.148 194.26c0 3.1713 0.38611 3.8719 0.54056 4.0194 0.15445 0.14751 0.30888 1.1432 1.1969 0.84815s1.6603-1.5119 1.7761-2.1019c0.11588-0.59002 0.23166-2.8394 0.23166-2.8394"/>
   <path d="m64.128 153.25s-0.42472 5.5682 1.8147 5.4207c2.2395-0.14749 2.6642-0.66376 2.6642-0.66376s0.54056 0.70065 1.4286-4.4619"/>
   <path d="m99.665 153.52c0.60066 3.9373 2.3753 5.0325 2.3753 5.0325s2.0477 0.83439 2.5937-0.88656c0.54605-1.7209 0.81907-3.5984 0.81907-3.5984"/>
   <g stroke-linecap="round">
    <path d="m105.24 190.31s-25.61-0.15644-31.289-2.2946c-5.6789-2.1381-9.8835-12.047-9.8835-12.047s-1.3105-10.639 4.9144-14.498c6.225-3.8591 19.166-1.408 19.166-1.408s11.631 4.7978 13.651 15.176c2.0204 10.378 3.4401 15.071 3.4401 15.071z"/>
    <path d="m76.841 180.87c0.76447 2.6075 1.5835 3.6505 2.5118 3.4419 0.92828-0.2086 2.348-2.086 2.348-2.086"/>
    <path d="m92.294 181.18c0 0.2086 2.348 4.3284 4.8052-0.0522"/>
    <path d="m73.073 168.67s1.9112-6.3101 6.225-1.721"/>
    <path d="m82.683 167.21s2.1296-4.6935 5.8973 0.9387"/>
    <path d="m76.677 169.81s4.5322 4.0156 8.0815 0.31291"/>
   </g>
  </g>
 </g>
</svg>
